<svg width="112" height="32" viewBox="0 0 112 32" fill="none" xmlns="http://www.w3.org/2000/svg">
<g clip-path="url(#clip0_15_1149)">
<path d="M21.1955 0H0L11.6704 11.3632H21.1955V0Z" fill="#FD0000"/>
<path d="M21.1955 32.0001V20.6368L11.6704 11.3633H0L21.1955 32.0001Z" fill="#FD0000"/>
<path d="M25.7839 22.9119V9.32483H30.6121C31.3798 9.32483 32.0765 9.48829 32.6839 9.81156C33.2902 10.1324 33.771 10.5789 34.1121 11.1388C34.4532 11.6987 34.6268 12.3331 34.6268 13.0235C34.6268 13.5761 34.5062 14.097 34.2688 14.5728C34.0326 15.0473 33.7108 15.4255 33.3155 15.6963L33.0093 15.9049L33.354 16.0391C33.894 16.2489 34.3363 16.6197 34.6678 17.1406C35.0004 17.6652 35.1703 18.2812 35.1703 18.9729C35.1703 19.7085 34.9992 20.3843 34.6629 20.982C34.3279 21.5798 33.8566 22.0555 33.2624 22.3959C32.6682 22.7375 31.9921 22.9107 31.2533 22.9107H25.7851L25.7839 22.9119ZM28.7331 20.266H30.6507C31.0653 20.266 31.4148 20.1184 31.6908 19.8268C31.9644 19.5377 32.103 19.1693 32.103 18.7338C32.103 18.2983 31.9644 17.9104 31.6908 17.6213C31.416 17.3297 31.0592 17.1821 30.6314 17.1821H28.7331V20.2672V20.266ZM28.7331 14.9363H30.0878C30.5133 14.9363 30.8748 14.7936 31.1617 14.5118C31.4509 14.2288 31.598 13.8701 31.598 13.4432C31.598 13.0162 31.4509 12.66 31.1593 12.3831C30.8712 12.1098 30.5109 11.9708 30.0866 11.9708H28.7319V14.9363H28.7331Z" fill="white"/>
<path d="M36.2768 22.9118V12.9722H38.9994V14.6374L39.3574 14.0311C39.8889 13.1308 40.6096 12.6929 41.563 12.6929C41.7607 12.6929 41.9728 12.7173 42.1982 12.7648V15.4669H41.3979C40.6735 15.4669 40.0974 15.6767 39.6816 16.0902C39.2658 16.5062 39.0537 17.1259 39.0537 17.9323V22.9118H36.2756H36.2768Z" fill="white"/>
<path d="M47.5024 23.2096C46.6226 23.2096 45.8127 22.9815 45.0931 22.5313C44.3724 22.0812 43.7987 21.4493 43.3877 20.6527C42.9755 19.8549 42.7658 18.9461 42.7658 17.9519C42.7658 16.9577 42.9743 16.0501 43.3877 15.2511C43.7987 14.4545 44.3724 13.8189 45.0931 13.3615C45.8127 12.9052 46.6226 12.6747 47.5012 12.6747C48.7017 12.6747 49.6442 13.0419 50.3022 13.7665L50.6361 14.1337V12.9723H53.284V22.912H50.6361V21.7811L50.3046 22.1349C49.6345 22.8485 48.692 23.2096 47.5024 23.2096ZM48.0171 15.3755C47.3048 15.3755 46.7021 15.6231 46.2249 16.1123C45.7488 16.6015 45.5065 17.22 45.5065 17.9519C45.5065 18.6838 45.7512 19.3048 46.2345 19.7927C46.7154 20.2807 47.3156 20.5283 48.0159 20.5283C48.7161 20.5283 49.3151 20.2807 49.7972 19.7927C50.2793 19.3035 50.524 18.6838 50.524 17.9519C50.524 17.22 50.2829 16.6015 49.8069 16.1123C49.3296 15.6231 48.727 15.3755 48.0147 15.3755H48.0171Z" fill="white"/>
<path d="M61.54 22.9118V17.2992C61.54 16.7185 61.3748 16.2391 61.0482 15.8755C60.718 15.5059 60.2805 15.3181 59.7478 15.3181C59.1584 15.3181 58.6715 15.5059 58.2978 15.8768C57.9242 16.2476 57.735 16.7392 57.735 17.337V22.9118H54.975V12.9722H57.735V14.1287L58.0688 13.7664C58.381 13.4272 58.7498 13.1601 59.1644 12.9747C59.579 12.788 60.0298 12.6929 60.5022 12.6929C61.2447 12.6929 61.9076 12.8832 62.4752 13.2565C63.0429 13.6322 63.4937 14.1653 63.8143 14.8435C64.1373 15.5267 64.3012 16.322 64.3012 17.2064V22.9118H61.5424H61.54Z" fill="white"/>
<path d="M70.1539 23.2095C69.2752 23.2095 68.4641 22.9814 67.7458 22.5313C67.0238 22.0799 66.4514 21.448 66.0404 20.6527C65.627 19.8536 65.4185 18.9448 65.4185 17.9506C65.4185 16.9564 65.6282 16.05 66.0404 15.2498C66.4501 14.4544 67.0238 13.8189 67.7458 13.3602C68.4653 12.904 69.2752 12.6734 70.1527 12.6734C71.3531 12.6734 72.2944 13.0406 72.9525 13.7652L73.2851 14.1312L73.2996 9.32483H75.9306L75.9174 22.9119H73.2863V21.7811L72.9549 22.1348C72.2847 22.8485 71.3422 23.2095 70.1527 23.2095H70.1539ZM70.6697 15.3755C69.9586 15.3755 69.3548 15.6231 68.8787 16.1123C68.4026 16.6014 68.1616 17.2199 68.1616 17.9518C68.1616 18.6838 68.4063 19.3047 68.8884 19.7927C69.3705 20.2806 69.9707 20.5282 70.6697 20.5282C71.3688 20.5282 71.969 20.2806 72.4511 19.7927C72.9332 19.3035 73.1778 18.6838 73.1778 17.9518C73.1778 17.2199 72.9368 16.6014 72.4607 16.1123C71.9846 15.6231 71.382 15.3755 70.6685 15.3755H70.6697Z" fill="white"/>
<path d="M81.5325 12.2855C81.8881 12.0561 82.3232 11.9415 82.839 11.9415C83.2066 11.9415 83.5742 11.9976 83.9418 12.1086C84.3094 12.2196 84.6409 12.3696 84.9349 12.5551L85.2471 10.2104C84.5734 9.96281 83.8671 9.83838 83.1319 9.83838C82.0291 9.83838 81.0697 10.1299 80.255 10.713C79.4402 11.2961 78.9521 12.1769 78.793 13.3553C78.7677 13.5785 78.7569 13.7347 78.7569 13.8201C78.7569 14.3166 78.8665 14.7667 79.0883 15.1693C79.3089 15.5718 79.5692 15.9195 79.8693 16.2123C80.1694 16.5038 80.5707 16.8478 81.0733 17.2443C81.6374 17.6908 82.0472 18.0567 82.3051 18.3422C82.563 18.6276 82.6908 18.9497 82.6908 19.3096L82.6727 19.4962C82.5245 20.6636 81.8025 21.2467 80.5033 21.2467C80.085 21.2467 79.6475 21.1711 79.1883 21.0223C78.7279 20.8735 78.3145 20.6746 77.9469 20.427L77.6348 22.7533C77.9903 22.9265 78.3953 23.0631 78.8485 23.1632C79.3028 23.262 79.756 23.312 80.2092 23.312C81.447 23.312 82.4738 23.0046 83.2898 22.391C84.1045 21.7762 84.6035 20.8247 84.7879 19.534C84.8132 19.3352 84.8253 19.1803 84.8253 19.068C84.8253 18.5715 84.712 18.1129 84.4842 17.692C84.2576 17.2699 83.9876 16.9039 83.6755 16.5941C83.3633 16.283 82.9547 15.9183 82.4521 15.4962C81.876 15.0241 81.4614 14.6362 81.2119 14.3324C80.96 14.0287 80.8588 13.703 80.9082 13.3553C80.9697 12.8722 81.177 12.5148 81.5325 12.2855Z" fill="#FD0000"/>
<path d="M94.9831 13.5249C94.3515 12.8686 93.503 12.5392 92.4364 12.5392C91.8229 12.5392 91.2432 12.6624 90.6984 12.9088C90.1524 13.1553 89.6788 13.5054 89.2738 13.9592L89.9355 9.12964H87.9131L86.0004 23.1059H88.0228L88.8496 17.065V17.0455C88.9592 16.3013 89.2871 15.6914 89.8331 15.2181C90.379 14.7448 91.0311 14.5069 91.7916 14.5069C92.4292 14.5069 92.9354 14.6935 93.309 15.0668C93.6826 15.4389 93.8694 15.9342 93.8694 16.5526C93.8694 16.6283 93.8574 16.7673 93.8321 16.9686L93.0053 23.1046H95.0457L95.8737 16.9686C95.9099 16.6783 95.9292 16.4075 95.9292 16.1537C95.9292 15.0558 95.6134 14.1775 94.9819 13.5212L94.9831 13.5249Z" fill="#FD0000"/>
<path d="M105.087 11.5779C105.381 11.2998 105.778 11.1595 106.281 11.1595H107.165L107.439 9.13086H106.557C105.49 9.13086 104.586 9.45657 103.845 10.108C103.104 10.7594 102.659 11.6182 102.512 12.6856L101.06 23.1071H103.1L104.241 14.9363H106.649L106.925 12.9454H104.515L104.553 12.6844C104.614 12.2245 104.791 11.8561 105.087 11.5767V11.5779Z" fill="#FD0000"/>
<path d="M109.664 14.9363H111.723L111.999 12.9454H109.939L110.374 9.13086H108.352L106.961 19.7207C106.925 19.9817 106.905 20.2355 106.905 20.4831C106.905 21.3639 107.15 22.0519 107.641 22.5484C108.131 23.0449 108.866 23.2925 109.847 23.2925H110.545L110.839 21.2455H110.325C109.429 21.2455 108.982 20.8234 108.982 19.9805C108.982 19.9049 108.994 19.7561 109.018 19.534L109.662 14.9375L109.664 14.9363Z" fill="#FD0000"/>
<path d="M98.3204 12.9454H100.343L98.9266 23.1071H96.9042L98.3204 12.9454Z" fill="#FD0000"/>
<path d="M98.6711 10.1641L100.731 10.1628L100.437 12.2281L98.6711 10.1641Z" fill="#FD0000"/>
</g>
<defs>
<clipPath id="clip0_15_1149">
<rect width="112" height="32" fill="white"/>
</clipPath>
</defs>
</svg>
